Lara Croft Tomb Raider: The Cradle of Life*2003*[BluRay][1080p][ENG, POL]

General information:
Country: USA, Germany, Japan, UK
Release: 21 July 2003
Genre: Action, Adventure, Fantasy, Thriller
Director: Jan de Bont
Screenplay: Dean Georgaris
Original Music: Alan Silvestri
Cinematography by: David Tattersall
Duration: 1h 57mn
Language: English, Polish
No Subtitles 
Rating: 6.5/10 - 13270 vo

Cast:
Angelina Jolie  ...  Lara Croft  
Gerard Butler  ...  Terry Sheridan  
Ciarán Hinds  ...  Jonathan Reiss  
Chris Barrie  ...  Hillary (as Christopher Barrie)  
Noah Taylor  ...  Bryce  
Djimon Hounsou  ...  Kosa  
Til Schweiger  ...  Sean  
Simon Yam  ...  Chen Lo  
Terence Yin  ...  Xien  
Daniel Caltagirone  ...  Nicholas Petraki  
Fabiano Martell  ...  Jimmy Petraki  
Jonathan Coyne  ...  Gus Petraki  
Robert Cavanah  ...  MI6 Agent Stevens  
Ronan Vibert  ...  MI6 Agent Calloway  
Lenny Juma  ...  Village Leader  

Plot:
Lara Croft is on a quest to save Pandoras box.

Specifications:
General
Format                           : Matroska
Overall bit rate                 : 4 763 Kbps

Video
Format                           : AVC
Format/Info                      : Advanced Video Codec
Format profile                   : High@L4.0
Format settings, CABAC           : Yes
Format settings, ReFrames        : 3 frames
Muxing mode                      : Container profile=Unknown@4.0
Codec ID                         : V_MPEG4/ISO/AVC
Bit rate                         : 3 932 Kbps
Width                            : 1 920 pixels
Height                           : 1 080 pixels
Display aspect ratio             : 16:9
Frame rate                       : 23.976 fps

Audio 1
Format                           : AC-3
Format/Info                      : Audio Coding 3
Mode extension                   : CM (complete main)
Codec ID                         : A_AC3
Bit rate mode                    : Constant
Bit rate                         : 640 Kbps
Channel(s)                       : 6 channels
Channel positions                : Front: L C R, Side: L R, LFE
Sampling rate                    : 48.0 KHz
Stream size                      : 537 MiB (13%)
Title                            : English_A

Audio 2
Format                           : AC-3
Format/Info                      : Audio Coding 3
Mode extension                   : CM (complete main)
Codec ID                         : A_AC3
Bit rate mode                    : Constant
Bit rate                         : 192 Kbps
Channel(s)                       : 2 channels
Channel positions                : Front: L R
Sampling rate                    : 48.0 KHz
Stream size                      : 161 MiB (4%)
Title                            : Polish_A
Language                         : Polish
